<mxfile host="localhost" modified="2020-05-11T16:23:31.191Z" agent="5.0 (Macintosh; Intel Mac OS X 10_15_4) AppleWebKit/537.36 (KHTML, like Gecko) Code/1.45.0 Chrome/78.0.3904.130 Electron/7.2.4 Safari/537.36" etag="j5iOoX2y4ftzSvVWXwh4" version="13.0.9">
    <diagram id="bZE76Elo-nLqv256qLl0" name="Page-1">
        <mxGraphModel dx="906" dy="639" grid="1" gridSize="10" guides="1" tooltips="1" connect="1" arrows="1" fold="1" page="1" pageScale="1" pageWidth="827" pageHeight="1169" math="0" shadow="0">
            <root>
                <mxCell id="0"/>
                <mxCell id="1" parent="0"/>
                <mxCell id="Pvk2FdC-aQeLnYgF8jgj-1" value="&lt;sup style=&quot;font-size: 13px;&quot;&gt;3&lt;/sup&gt;" style="ellipse;whiteSpace=wrap;html=1;aspect=fixed;fontStyle=0;fontSize=13;verticalAlign=middle;spacingTop=4;spacing=0;" parent="1" vertex="1">
                    <mxGeometry x="120" y="240" width="40" height="40" as="geometry"/>
                </mxCell>
                <mxCell id="Pvk2FdC-aQeLnYgF8jgj-2" value="" style="endArrow=classic;html=1;entryX=0.5;entryY=0;entryDx=0;entryDy=0;exitX=0.5;exitY=1;exitDx=0;exitDy=0;" parent="1" source="Fw071Od9tRU07s66t_8l-8" target="Pvk2FdC-aQeLnYgF8jgj-1" edge="1">
                    <mxGeometry width="50" height="50" relative="1" as="geometry">
                        <mxPoint x="140" y="210" as="sourcePoint"/>
                        <mxPoint x="170" y="350" as="targetPoint"/>
                    </mxGeometry>
                </mxCell>
                <mxCell id="Fw071Od9tRU07s66t_8l-11" value="{ alloc&lt;sub&gt;ρ2 &lt;/sub&gt;}" style="text;html=1;align=center;verticalAlign=middle;resizable=0;points=[];labelBackgroundColor=#EBEBEB;" parent="Pvk2FdC-aQeLnYgF8jgj-2" vertex="1" connectable="0">
                    <mxGeometry x="-0.4" y="1" relative="1" as="geometry">
                        <mxPoint x="-1" y="5" as="offset"/>
                    </mxGeometry>
                </mxCell>
                <mxCell id="Pvk2FdC-aQeLnYgF8jgj-3" value="" style="endArrow=classic;html=1;exitX=0.5;exitY=1;exitDx=0;exitDy=0;entryX=0.5;entryY=0;entryDx=0;entryDy=0;" parent="1" source="Pvk2FdC-aQeLnYgF8jgj-1" target="Pvk2FdC-aQeLnYgF8jgj-5" edge="1">
                    <mxGeometry width="50" height="50" relative="1" as="geometry">
                        <mxPoint x="120" y="400" as="sourcePoint"/>
                        <mxPoint x="160" y="370" as="targetPoint"/>
                    </mxGeometry>
                </mxCell>
                <mxCell id="Fw071Od9tRU07s66t_8l-15" value="{ lock&lt;sub&gt;ρ2 &lt;/sub&gt;, ... }" style="text;html=1;align=center;verticalAlign=middle;resizable=0;points=[];labelBackgroundColor=#EBEBEB;" parent="Pvk2FdC-aQeLnYgF8jgj-3" vertex="1" connectable="0">
                    <mxGeometry x="-0.2" y="1" relative="1" as="geometry">
                        <mxPoint y="2" as="offset"/>
                    </mxGeometry>
                </mxCell>
                <mxCell id="Pvk2FdC-aQeLnYgF8jgj-10" style="edgeStyle=orthogonalEdgeStyle;rounded=0;orthogonalLoop=1;jettySize=auto;html=1;exitX=0.5;exitY=1;exitDx=0;exitDy=0;entryX=0.5;entryY=0;entryDx=0;entryDy=0;" parent="1" source="Pvk2FdC-aQeLnYgF8jgj-5" target="Pvk2FdC-aQeLnYgF8jgj-9" edge="1">
                    <mxGeometry relative="1" as="geometry"/>
                </mxCell>
                <mxCell id="Pvk2FdC-aQeLnYgF8jgj-11" value="{ unlock&lt;sub&gt;ρ2&lt;/sub&gt;, ... }" style="text;html=1;align=center;verticalAlign=middle;resizable=0;points=[];labelBackgroundColor=#EBEBEB;" parent="Pvk2FdC-aQeLnYgF8jgj-10" vertex="1" connectable="0">
                    <mxGeometry x="-0.25" y="-2" relative="1" as="geometry">
                        <mxPoint y="3" as="offset"/>
                    </mxGeometry>
                </mxCell>
                <mxCell id="Pvk2FdC-aQeLnYgF8jgj-5" value="&lt;sup style=&quot;font-size: 13px&quot;&gt;4&lt;/sup&gt;" style="ellipse;whiteSpace=wrap;html=1;aspect=fixed;fontStyle=0;fontSize=13;verticalAlign=middle;spacingTop=4;spacing=0;" parent="1" vertex="1">
                    <mxGeometry x="120" y="320" width="40" height="40" as="geometry"/>
                </mxCell>
                <mxCell id="Pvk2FdC-aQeLnYgF8jgj-6" value="&lt;font face=&quot;Courier New&quot;&gt;2: int lock;&lt;/font&gt;" style="text;html=1;align=left;verticalAlign=middle;resizable=0;points=[];autosize=1;fontStyle=1" parent="1" vertex="1">
                    <mxGeometry x="280" y="210" width="100" height="20" as="geometry"/>
                </mxCell>
                <mxCell id="Pvk2FdC-aQeLnYgF8jgj-7" value="&lt;font face=&quot;Courier New&quot;&gt;4: spin_unlock(&amp;amp;lock);&lt;/font&gt;" style="text;html=1;align=left;verticalAlign=middle;resizable=0;points=[];autosize=1;fontStyle=1" parent="1" vertex="1">
                    <mxGeometry x="280" y="370" width="170" height="20" as="geometry"/>
                </mxCell>
                <mxCell id="Pvk2FdC-aQeLnYgF8jgj-15" style="rounded=0;orthogonalLoop=1;jettySize=auto;html=1;exitX=0;exitY=1;exitDx=0;exitDy=0;entryX=0.5;entryY=0;entryDx=0;entryDy=0;" parent="1" source="Pvk2FdC-aQeLnYgF8jgj-9" target="Pvk2FdC-aQeLnYgF8jgj-12" edge="1">
                    <mxGeometry relative="1" as="geometry"/>
                </mxCell>
                <mxCell id="Pvk2FdC-aQeLnYgF8jgj-16" style="edgeStyle=none;rounded=0;orthogonalLoop=1;jettySize=auto;html=1;exitX=1;exitY=1;exitDx=0;exitDy=0;entryX=0.5;entryY=0;entryDx=0;entryDy=0;" parent="1" source="Pvk2FdC-aQeLnYgF8jgj-9" target="Pvk2FdC-aQeLnYgF8jgj-13" edge="1">
                    <mxGeometry relative="1" as="geometry"/>
                </mxCell>
                <mxCell id="Pvk2FdC-aQeLnYgF8jgj-9" value="&lt;sup style=&quot;font-size: 13px&quot;&gt;5&lt;/sup&gt;" style="ellipse;whiteSpace=wrap;html=1;aspect=fixed;fontStyle=0;fontSize=13;verticalAlign=middle;spacingTop=4;spacing=0;" parent="1" vertex="1">
                    <mxGeometry x="120" y="400" width="40" height="40" as="geometry"/>
                </mxCell>
                <mxCell id="Pvk2FdC-aQeLnYgF8jgj-20" style="edgeStyle=none;rounded=0;orthogonalLoop=1;jettySize=auto;html=1;exitX=0.5;exitY=1;exitDx=0;exitDy=0;entryX=0;entryY=0;entryDx=0;entryDy=0;" parent="1" source="Pvk2FdC-aQeLnYgF8jgj-12" target="LTpbhCO1g7uA7Zz5RVJC-1" edge="1">
                    <mxGeometry relative="1" as="geometry">
                        <mxPoint x="125.85786437626894" y="565.8578643762689" as="targetPoint"/>
                    </mxGeometry>
                </mxCell>
                <mxCell id="Fw071Od9tRU07s66t_8l-2" value="{ write&lt;sub&gt;ρ1&lt;/sub&gt; }" style="text;html=1;align=center;verticalAlign=middle;resizable=0;points=[];labelBackgroundColor=#EBEBEB;" parent="Pvk2FdC-aQeLnYgF8jgj-20" vertex="1" connectable="0">
                    <mxGeometry x="-0.0332" y="3" relative="1" as="geometry">
                        <mxPoint as="offset"/>
                    </mxGeometry>
                </mxCell>
                <mxCell id="Pvk2FdC-aQeLnYgF8jgj-12" value="&lt;span style=&quot;font-size: 13px&quot;&gt;7&lt;/span&gt;" style="ellipse;whiteSpace=wrap;html=1;aspect=fixed;fontSize=13;fontStyle=0;verticalAlign=middle;spacingTop=4;spacing=0;" parent="1" vertex="1">
                    <mxGeometry x="40" y="480" width="40" height="40" as="geometry"/>
                </mxCell>
                <mxCell id="Pvk2FdC-aQeLnYgF8jgj-19" style="edgeStyle=none;rounded=0;orthogonalLoop=1;jettySize=auto;html=1;exitX=0.5;exitY=1;exitDx=0;exitDy=0;entryX=1;entryY=0;entryDx=0;entryDy=0;" parent="1" source="Pvk2FdC-aQeLnYgF8jgj-13" target="LTpbhCO1g7uA7Zz5RVJC-1" edge="1">
                    <mxGeometry relative="1" as="geometry">
                        <mxPoint x="154.14213562373106" y="565.8578643762689" as="targetPoint"/>
                    </mxGeometry>
                </mxCell>
                <mxCell id="Fw071Od9tRU07s66t_8l-3" value="{ unlock&lt;sub&gt;ρ2&lt;/sub&gt;, ... }" style="text;html=1;align=center;verticalAlign=middle;resizable=0;points=[];labelBackgroundColor=#EBEBEB;" parent="Pvk2FdC-aQeLnYgF8jgj-19" vertex="1" connectable="0">
                    <mxGeometry x="-0.1492" relative="1" as="geometry">
                        <mxPoint as="offset"/>
                    </mxGeometry>
                </mxCell>
                <mxCell id="Pvk2FdC-aQeLnYgF8jgj-13" value="&lt;sup style=&quot;font-size: 13px&quot;&gt;6&lt;/sup&gt;" style="ellipse;whiteSpace=wrap;html=1;aspect=fixed;fontStyle=0;fontSize=13;verticalAlign=middle;spacingTop=4;spacing=0;" parent="1" vertex="1">
                    <mxGeometry x="200" y="480" width="40" height="40" as="geometry"/>
                </mxCell>
                <mxCell id="Pvk2FdC-aQeLnYgF8jgj-14" value="&lt;font face=&quot;Courier New&quot;&gt;5: if (...) { &lt;br&gt;6:&amp;nbsp; &amp;nbsp; spin_unlock(&amp;amp;lock);&lt;/font&gt;&lt;font face=&quot;Courier New&quot;&gt;&lt;br&gt;&amp;nbsp; &amp;nbsp;} else { &lt;br&gt;7:&amp;nbsp; &amp;nbsp; x = 2;&lt;/font&gt;&lt;font face=&quot;Courier New&quot;&gt;&lt;br&gt;&amp;nbsp; &amp;nbsp;}&lt;br&gt;8:&lt;br&gt;&lt;/font&gt;" style="text;html=1;align=left;verticalAlign=middle;resizable=0;points=[];autosize=1;fontStyle=1" parent="1" vertex="1">
                    <mxGeometry x="280" y="430" width="200" height="100" as="geometry"/>
                </mxCell>
                <mxCell id="Fw071Od9tRU07s66t_8l-6" value="&lt;font face=&quot;Courier New&quot;&gt;3: spin_lock(&amp;amp;lock);&lt;/font&gt;" style="text;html=1;align=left;verticalAlign=middle;resizable=0;points=[];autosize=1;fontStyle=1" parent="1" vertex="1">
                    <mxGeometry x="280" y="290" width="160" height="20" as="geometry"/>
                </mxCell>
                <mxCell id="Fw071Od9tRU07s66t_8l-7" value="&lt;font face=&quot;Courier New&quot;&gt;1: int x;&lt;/font&gt;" style="text;html=1;align=left;verticalAlign=middle;resizable=0;points=[];autosize=1;fontStyle=1" parent="1" vertex="1">
                    <mxGeometry x="280" y="130" width="80" height="20" as="geometry"/>
                </mxCell>
                <mxCell id="Fw071Od9tRU07s66t_8l-8" value="&lt;sup style=&quot;font-size: 13px;&quot;&gt;2&lt;/sup&gt;" style="ellipse;whiteSpace=wrap;html=1;aspect=fixed;fontStyle=0;fontSize=13;verticalAlign=middle;spacingTop=4;spacing=0;" parent="1" vertex="1">
                    <mxGeometry x="120" y="160" width="40" height="40" as="geometry"/>
                </mxCell>
                <mxCell id="Fw071Od9tRU07s66t_8l-10" value="" style="endArrow=classic;html=1;entryX=0.5;entryY=0;entryDx=0;entryDy=0;exitX=0.5;exitY=1;exitDx=0;exitDy=0;" parent="1" source="Fw071Od9tRU07s66t_8l-12" target="Fw071Od9tRU07s66t_8l-8" edge="1">
                    <mxGeometry width="50" height="50" relative="1" as="geometry">
                        <mxPoint x="140" y="120" as="sourcePoint"/>
                        <mxPoint x="150" y="260" as="targetPoint"/>
                    </mxGeometry>
                </mxCell>
                <mxCell id="Fw071Od9tRU07s66t_8l-14" value="{ alloc&lt;sub&gt;ρ1 &lt;/sub&gt;}" style="text;html=1;align=center;verticalAlign=middle;resizable=0;points=[];labelBackgroundColor=#EBEBEB;" parent="Fw071Od9tRU07s66t_8l-10" vertex="1" connectable="0">
                    <mxGeometry x="-0.05" relative="1" as="geometry">
                        <mxPoint y="-2" as="offset"/>
                    </mxGeometry>
                </mxCell>
                <mxCell id="Fw071Od9tRU07s66t_8l-12" value="&lt;sup style=&quot;font-size: 13px;&quot;&gt;1&lt;/sup&gt;" style="ellipse;whiteSpace=wrap;html=1;aspect=fixed;fontStyle=0;fontSize=13;verticalAlign=middle;spacingTop=4;spacing=0;" parent="1" vertex="1">
                    <mxGeometry x="120" y="80" width="40" height="40" as="geometry"/>
                </mxCell>
                <mxCell id="Fw071Od9tRU07s66t_8l-13" value="" style="endArrow=classic;html=1;entryX=0.5;entryY=0;entryDx=0;entryDy=0;" parent="1" target="Fw071Od9tRU07s66t_8l-12" edge="1">
                    <mxGeometry width="50" height="50" relative="1" as="geometry">
                        <mxPoint x="140" y="40" as="sourcePoint"/>
                        <mxPoint x="160" y="270" as="targetPoint"/>
                    </mxGeometry>
                </mxCell>
                <mxCell id="LTpbhCO1g7uA7Zz5RVJC-1" value="8" style="ellipse;shape=doubleEllipse;whiteSpace=wrap;html=1;aspect=fixed;fontSize=13;" parent="1" vertex="1">
                    <mxGeometry x="120" y="560" width="40" height="40" as="geometry"/>
                </mxCell>
            </root>
        </mxGraphModel>
    </diagram>
</mxfile>